<svg width="224" height="160" viewBox="0 0 224 160" fill="none" xmlns="http://www.w3.org/2000/svg">
<path fill-rule="evenodd" clip-rule="evenodd" d="M0 25.6L25.6 0H224V134.4L198.4 160H0V25.6ZM106.624 146.544L121.456 139.632H121.44L109.344 120.192C114.912 116.448 118.928 111.024 121.376 103.92C123.808 96.816 125.04 87.504 125.04 75.984C125.04 58.512 122.064 45.568 116.112 37.168C110.16 28.768 99.792 24.56 85.008 24.56C70.224 24.56 59.84 28.784 53.84 37.232C47.84 45.696 44.848 58.624 44.848 76.048C44.848 93.472 47.792 106.224 53.696 114.288C59.616 122.352 70.048 126.384 85.024 126.384C89.056 126.384 91.984 126.096 93.808 125.52L106.624 146.544ZM146.64 120.768C149.664 124.512 155.264 126.384 163.424 126.384C166.784 126.384 171.68 125.76 178.112 124.512L177.392 111.984L165.584 112.416C162.032 112.416 159.824 111.456 158.96 109.536C158.096 107.616 157.664 103.728 157.664 97.872V66.192H177.536V52.8H157.664V31.92H142.112V52.8H132.896V66.192H142.112V99.6C142.112 109.968 143.616 117.024 146.64 120.768ZM66.4482 47.4719C69.8082 41.5199 76.0002 38.5439 85.0242 38.5439C94.0482 38.5439 100.224 41.5199 103.536 47.4719C106.832 53.4239 108.496 62.9759 108.496 76.1279C108.496 89.2799 106.896 98.6079 103.68 104.128C100.448 109.648 94.2402 112.4 85.0242 112.4C75.8082 112.4 69.5682 109.6 66.3042 103.984C63.0402 98.3679 61.4082 89.0399 61.4082 75.9839C61.4082 62.9279 63.0882 53.4239 66.4482 47.4719Z" fill="#2CDE85"/>
</svg>
